<?xml version="1.0" encoding="UTF-8"?>
<svg xmlns="http://www.w3.org/2000/svg" xmlns:xlink="http://www.w3.org/1999/xlink" width="375pt" height="374.999991pt" viewBox="0 0 375 374.999991" version="1.2">
<defs>
<clipPath id="clip1">
  <path d="M 42.097656 39.671875 L 344.695312 39.671875 L 344.695312 348.390625 L 42.097656 348.390625 Z M 42.097656 39.671875 "/>
</clipPath>
<clipPath id="clip2">
  <path d="M 27 26.640625 L 356.875 26.640625 L 356.875 322.726562 L 27 322.726562 Z M 27 26.640625 "/>
</clipPath>
<clipPath id="clip3">
  <path d="M 18.011719 32 L 336 32 L 336 347 L 18.011719 347 Z M 18.011719 32 "/>
</clipPath>
<clipPath id="clip4">
  <path d="M 27.617188 30.261719 L 351.933594 30.261719 L 351.933594 348.390625 L 27.617188 348.390625 Z M 27.617188 30.261719 "/>
</clipPath>
</defs>
<g id="surface1">
<g clip-path="url(#clip1)" clip-rule="nonzero">
<path style=" stroke:none;fill-rule:nonzero;fill:rgb(79.60968%,92.939758%,86.669922%);fill-opacity:1;" d="M 322.453125 272.382812 L 344.152344 272.382812 L 344.152344 281.070312 L 318.355469 281.070312 C 314.804688 288.140625 310.863281 294.847656 306.535156 301.101562 C 306.175781 301.621094 305.8125 302.136719 305.449219 302.652344 C 305.15625 303.066406 304.859375 303.476562 304.5625 303.886719 C 304.179688 304.410156 303.796875 304.933594 303.40625 305.449219 C 303.136719 305.8125 302.863281 306.175781 302.589844 306.535156 C 301.960938 307.359375 301.328125 308.175781 300.679688 308.980469 C 291.628906 320.28125 281.082031 329.691406 268.972656 336.492188 C 268.925781 336.515625 268.878906 336.542969 268.835938 336.570312 C 267.6875 337.210938 266.527344 337.835938 265.351562 338.429688 C 265.347656 338.429688 265.34375 338.433594 265.34375 338.433594 C 252.644531 344.851562 238.296875 348.457031 222.222656 348.457031 C 175.019531 348.457031 124.960938 320.496094 89.691406 281.070312 L 46.242188 281.070312 L 46.242188 272.382812 L 82.296875 272.382812 C 58.078125 242.347656 42.496094 206.785156 42.496094 172.195312 C 42.496094 86.992188 104.683594 39.914062 189.886719 39.914062 C 275.085938 39.914062 344.152344 76.832031 344.152344 162.035156 C 344.152344 198.996094 337.238281 238.96875 322.453125 272.382812 "/>
</g>
<g clip-path="url(#clip2)" clip-rule="nonzero">
<path style=" stroke:none;fill-rule:nonzero;fill:rgb(36.859131%,78.819275%,79.998779%);fill-opacity:1;" d="M 278.242188 101.320312 L 278.242188 158.402344 L 283.089844 158.402344 L 283.089844 169.214844 L 283.8125 169.191406 L 283.8125 158.402344 L 356.875 158.402344 L 356.875 101.320312 Z M 128.101562 68.617188 C 128.101562 68.921875 128.351562 69.171875 128.65625 69.171875 C 128.964844 69.171875 129.210938 68.921875 129.210938 68.617188 C 129.210938 68.3125 128.964844 68.0625 128.65625 68.0625 C 128.351562 68.0625 128.101562 68.3125 128.101562 68.617188 Z M 120.257812 80.210938 L 120.257812 74.78125 C 120.257812 73.921875 120.957031 73.226562 121.816406 73.226562 L 126.582031 73.226562 L 127.511719 71.480469 C 127.570312 71.367188 127.652344 71.265625 127.742188 71.175781 C 126.691406 70.796875 125.929688 69.800781 125.929688 68.617188 C 125.929688 67.113281 127.152344 65.890625 128.65625 65.890625 C 130.160156 65.890625 131.382812 67.113281 131.382812 68.617188 C 131.382812 69.800781 130.625 70.796875 129.570312 71.175781 C 129.660156 71.265625 129.742188 71.367188 129.800781 71.480469 L 130.730469 73.226562 L 135.5 73.226562 C 136.355469 73.226562 137.054688 73.921875 137.054688 74.78125 L 137.054688 80.210938 C 137.054688 81.070312 136.355469 81.769531 135.5 81.769531 L 121.816406 81.769531 C 120.957031 81.769531 120.257812 81.070312 120.257812 80.210938 Z M 149.503906 94.132812 L 77.667969 94.132812 L 77.667969 41.292969 L 75.5 41.292969 L 75.5 96.304688 L 149.503906 96.304688 Z M 107.320312 147.667969 L 100.851562 147.667969 L 100.851562 149.839844 L 107.320312 149.839844 Z M 100.851562 147.039062 L 115.332031 147.039062 L 115.332031 144.867188 L 100.851562 144.867188 Z M 100.851562 144.242188 L 110.988281 144.242188 L 110.988281 142.070312 L 100.851562 142.070312 Z M 100.851562 136.773438 L 100.851562 138.945312 L 107.320312 138.945312 L 107.320312 136.773438 Z M 115.332031 133.972656 L 100.851562 133.972656 L 100.851562 136.144531 L 115.332031 136.144531 Z M 100.851562 131.171875 L 100.851562 133.34375 L 110.988281 133.34375 L 110.988281 131.171875 Z M 53.992188 141.609375 L 27.207031 141.609375 L 27.207031 149.28125 L 53.992188 149.28125 Z M 63.984375 130.460938 L 27.207031 130.460938 L 27.207031 138.136719 L 63.984375 138.136719 Z M 142.703125 272.382812 L 157.296875 272.382812 L 149.949219 256.597656 Z M 265.832031 179.242188 C 262.027344 170.945312 254.167969 164.828125 244.617188 163.609375 C 244.402344 163.582031 244.183594 163.558594 243.96875 163.527344 L 243.710938 157.617188 C 243.710938 157.617188 243.9375 155.589844 242.535156 154.867188 C 242.535156 154.867188 236.503906 156.75 230.761719 157.617188 C 225.019531 158.488281 222.171875 155.832031 222.171875 155.832031 C 222.171875 155.832031 219.613281 156.027344 219.46875 157.28125 C 219.324219 158.535156 220.867188 159.550781 220.359375 160.660156 C 220.214844 160.980469 219.925781 161.632812 219.589844 162.394531 C 210.210938 162.914062 201.679688 164.890625 196.429688 169.460938 L 187.082031 176.714844 L 191.125 190.828125 L 202.5625 230.785156 L 192.53125 230.785156 C 193.09375 232.855469 193.695312 234.824219 194.273438 236.609375 C 196.226562 242.625 195.621094 249.175781 192.601562 254.734375 L 183.035156 272.382812 L 258.859375 272.382812 C 257.828125 255.148438 258.832031 237.851562 261.851562 220.847656 C 262.75 221.710938 263.695312 222.539062 264.695312 223.320312 L 278.558594 240.066406 C 282.886719 245.296875 290.523438 246.300781 296.054688 242.355469 C 301.949219 238.152344 303.257812 229.9375 298.957031 224.113281 Z M 148.640625 206.527344 C 143.910156 210.027344 142.230469 216.335938 144.597656 221.722656 C 147.082031 227.382812 153.238281 230.304688 159.078125 228.886719 L 151.921875 203.988281 Z M 178.324219 281.070312 L 175.328125 286.597656 C 200.605469 286.597656 223.957031 300.097656 236.5625 322.011719 L 236.722656 322.285156 L 260.78125 293.910156 L 259.546875 281.070312 Z M 57.039062 232.445312 L 81.882812 256.597656 L 82.921875 256.597656 L 56.191406 230.609375 C 56.46875 231.222656 56.75 231.835938 57.039062 232.445312 Z M 80.828125 221.40625 L 78.28125 228.449219 L 79.625 217.148438 L 72.234375 205.226562 L 67.707031 214.855469 L 69.863281 201.679688 L 50.925781 180.386719 L 50.960938 177.828125 L 50.238281 177.828125 L 50.199219 180.660156 L 69.097656 201.902344 L 66.15625 219.855469 L 72.324219 206.742188 L 78.878906 217.3125 L 76.816406 234.628906 L 80.773438 223.683594 L 90.277344 254.417969 L 91.128906 256.597656 L 91.90625 256.597656 L 90.964844 254.179688 Z M 121.847656 118.476562 L 121.847656 119.304688 L 122.515625 119.675781 L 133.039062 113.550781 L 130.46875 148.339844 L 121.847656 156.90625 L 121.847656 157.640625 L 129.179688 153.71875 L 128.433594 207.285156 L 110.085938 217.5625 L 128.238281 213.832031 L 126.894531 231.082031 L 112.453125 233.703125 L 107.300781 256.597656 L 108.039062 256.597656 L 113.054688 234.332031 L 127.574219 231.695312 L 129.035156 212.929688 L 114.511719 215.914062 L 129.148438 207.710938 L 129.921875 152.503906 L 124.257812 155.53125 L 131.171875 148.664062 L 133.859375 112.230469 L 122.503906 118.839844 Z M 99.714844 213.226562 L 87.734375 183.28125 L 89.769531 177.828125 L 88.996094 177.828125 L 86.960938 183.289062 L 97.796875 210.390625 L 87.09375 200.117188 L 85.453125 215.605469 L 98.15625 241.4375 L 98.808594 256.597656 L 99.535156 256.597656 L 98.875 241.328125 L 98.871094 241.253906 L 86.191406 215.472656 L 87.65625 201.664062 Z M 90.535156 177.828125 L 99.710938 192.578125 L 95.648438 177.828125 L 94.898438 177.828125 L 97.683594 187.953125 L 91.390625 177.828125 Z M 283.089844 265.753906 C 283.332031 265.753906 283.570312 265.753906 283.8125 265.753906 L 283.8125 248.21875 L 283.089844 248.191406 Z M 283.8125 59.800781 C 283.570312 59.675781 283.332031 59.550781 283.089844 59.425781 L 283.089844 101.320312 L 283.8125 101.320312 Z M 276.527344 265.785156 C 276.765625 265.785156 277.007812 265.78125 277.25 265.78125 L 277.25 248 L 276.527344 247.972656 Z M 276.527344 169.433594 L 277.25 169.40625 L 277.25 83.726562 L 280.113281 83.726562 L 280.113281 26.640625 L 199.332031 26.640625 L 199.332031 83.726562 L 276.527344 83.726562 Z M 177.359375 40.269531 C 177.117188 40.285156 176.878906 40.296875 176.636719 40.316406 L 176.636719 165.453125 L 177.359375 165.425781 Z M 177.359375 231.394531 L 176.636719 231.398438 L 176.636719 264.734375 C 176.878906 264.734375 177.121094 264.734375 177.359375 264.738281 Z M 170.074219 165.675781 L 170.796875 165.648438 L 170.796875 40.738281 C 170.554688 40.757812 170.3125 40.78125 170.074219 40.800781 Z M 170.074219 231.417969 L 170.074219 264.71875 C 170.3125 264.71875 170.554688 264.71875 170.796875 264.71875 L 170.796875 231.417969 L 170.386719 231.417969 C 170.285156 231.417969 170.179688 231.417969 170.074219 231.417969 Z M 332.617188 244.433594 C 332.6875 244.195312 332.757812 243.964844 332.824219 243.730469 L 329.800781 243.328125 L 333.046875 242.984375 C 333.121094 242.734375 333.183594 242.480469 333.253906 242.234375 L 323.699219 243.25 Z M 335.140625 204.652344 L 333.53125 193.210938 L 320.796875 206.457031 L 320.796875 220.367188 L 316.992188 210.234375 L 312.410156 214.699219 L 315.378906 235.152344 L 308.472656 225.734375 L 303.183594 235.589844 L 308.148438 255.890625 L 305.265625 266.144531 C 305.5 266.210938 305.730469 266.285156 305.953125 266.371094 L 308.898438 255.898438 L 303.953125 235.6875 L 308.570312 227.085938 L 316.515625 237.921875 L 313.179688 214.957031 L 316.703125 211.527344 L 321.519531 224.351562 L 321.519531 206.75 L 333.023438 194.789062 L 334.945312 208.453125 L 335.664062 208.421875 L 336.558594 191.695312 L 343.21875 185.746094 C 343.242188 185.398438 343.269531 185.050781 343.292969 184.707031 L 335.851562 191.355469 Z M 310.6875 270.691406 C 310.8125 270.941406 310.921875 271.195312 311.023438 271.460938 L 323.09375 255.160156 L 328.894531 256.03125 C 328.972656 255.796875 329.058594 255.566406 329.136719 255.335938 L 322.773438 254.378906 Z M 59.214844 222.484375 C 57.707031 220.8125 54.394531 219.496094 51.21875 218.558594 C 51.324219 218.839844 51.425781 219.128906 51.53125 219.414062 C 53.933594 220.152344 56.335938 221.09375 57.84375 222.222656 L 52.339844 221.523438 C 52.441406 221.78125 52.542969 222.039062 52.644531 222.292969 L 59.871094 223.207031 Z M 52.078125 202.832031 L 46.582031 203.640625 C 46.523438 203.40625 46.46875 203.167969 46.410156 202.933594 L 47.585938 202.757812 C 47.195312 202.714844 46.773438 202.671875 46.335938 202.625 C 46.273438 202.378906 46.214844 202.128906 46.152344 201.878906 C 47.824219 202.042969 49.242188 202.21875 50.125 202.410156 L 52.078125 202.832031 "/>
</g>
<path style=" stroke:none;fill-rule:nonzero;fill:rgb(97.648621%,82.348633%,56.858826%);fill-opacity:1;" d="M 286.992188 131.613281 L 281.972656 131.613281 L 281.972656 132.339844 L 286.992188 132.339844 Z M 295.003906 128.816406 L 281.972656 128.816406 L 281.972656 129.539062 L 295.003906 129.539062 Z M 290.660156 126.015625 L 281.972656 126.015625 L 281.972656 126.738281 L 290.660156 126.738281 Z M 337.402344 109.8125 L 337.402344 111.136719 L 330.636719 111.136719 L 326.960938 114.8125 C 323.78125 112.570312 319.910156 111.238281 315.757812 111.238281 C 315.4375 111.238281 315.117188 111.246094 314.800781 111.261719 C 314.636719 111.269531 314.476562 111.285156 314.3125 111.296875 C 314.164062 111.308594 314.015625 111.320312 313.867188 111.328125 C 313.648438 111.351562 313.4375 111.382812 313.222656 111.410156 C 313.132812 111.421875 313.042969 111.429688 312.953125 111.441406 C 312.703125 111.476562 312.457031 111.519531 312.210938 111.566406 C 312.171875 111.574219 312.132812 111.578125 312.089844 111.585938 L 312.09375 111.585938 L 315.757812 130.785156 L 335.300781 130.785156 C 335.300781 124.476562 332.25 118.828125 327.550781 115.246094 L 330.9375 111.863281 L 337.402344 111.863281 L 337.402344 113.191406 L 346.089844 113.191406 L 346.089844 109.8125 Z M 148.78125 94.859375 L 76.945312 94.859375 L 76.945312 42.015625 L 76.222656 42.015625 L 76.222656 95.582031 L 148.78125 95.582031 Z M 121.816406 73.949219 C 121.355469 73.949219 120.984375 74.320312 120.984375 74.78125 L 120.984375 80.210938 C 120.984375 80.671875 121.355469 81.042969 121.816406 81.042969 L 135.5 81.042969 C 135.957031 81.042969 136.328125 80.671875 136.328125 80.210938 L 136.328125 74.78125 C 136.328125 74.320312 135.957031 73.949219 135.5 73.949219 L 130.296875 73.949219 L 129.164062 71.824219 C 128.945312 71.417969 128.367188 71.417969 128.152344 71.824219 L 127.015625 73.949219 Z M 126.652344 68.617188 C 126.652344 69.722656 127.550781 70.621094 128.65625 70.621094 C 129.761719 70.621094 130.660156 69.722656 130.660156 68.617188 C 130.660156 67.515625 129.761719 66.617188 128.65625 66.617188 C 127.550781 66.617188 126.652344 67.515625 126.652344 68.617188 Z M 153.308594 101.523438 L 68.402344 101.523438 L 68.402344 35.929688 L 153.308594 35.929688 Z M 128.65625 69.898438 C 129.363281 69.898438 129.9375 69.324219 129.9375 68.617188 C 129.9375 67.914062 129.363281 67.339844 128.65625 67.339844 C 127.949219 67.339844 127.378906 67.914062 127.378906 68.617188 C 127.378906 69.324219 127.949219 69.898438 128.65625 69.898438 Z M 246.921875 38.328125 L 241.902344 38.328125 L 241.902344 39.050781 L 246.921875 39.050781 Z M 254.933594 35.527344 L 241.902344 35.527344 L 241.902344 36.25 L 254.933594 36.25 Z M 250.589844 32.730469 L 241.902344 32.730469 L 241.902344 33.453125 L 250.589844 33.453125 Z M 215.648438 38.328125 L 210.628906 38.328125 L 210.628906 39.050781 L 215.648438 39.050781 Z M 223.65625 35.527344 L 210.628906 35.527344 L 210.628906 36.25 L 223.65625 36.25 Z M 219.316406 32.730469 L 210.628906 32.730469 L 210.628906 33.453125 L 219.316406 33.453125 Z M 252.328125 44.289062 L 241.902344 44.289062 L 241.902344 76.972656 L 252.328125 76.972656 Z M 210.628906 76.972656 L 221.054688 76.972656 L 221.054688 60.480469 L 210.628906 60.480469 Z M 24.53125 171.578125 L 26.703125 171.578125 L 26.703125 119.3125 L 24.53125 119.3125 Z M 27.207031 171.578125 L 70.351562 171.578125 L 70.351562 163.90625 L 27.207031 163.90625 Z M 45.886719 119.3125 L 27.207031 119.3125 L 27.207031 126.988281 L 45.886719 126.988281 Z M 100.851562 171.628906 L 107.320312 171.628906 L 107.320312 169.457031 L 100.851562 169.457031 Z M 100.851562 168.828125 L 115.332031 168.828125 L 115.332031 166.65625 L 100.851562 166.65625 Z M 100.851562 166.03125 L 110.988281 166.03125 L 110.988281 163.859375 L 100.851562 163.859375 Z M 100.851562 128.046875 L 107.320312 128.046875 L 107.320312 125.875 L 100.851562 125.875 Z M 100.851562 125.25 L 115.332031 125.25 L 115.332031 123.078125 L 100.851562 123.078125 Z M 110.988281 122.453125 L 110.988281 120.28125 L 100.851562 120.28125 L 100.851562 122.453125 Z M 145.574219 181.90625 L 141.863281 186.09375 L 139.632812 188.695312 C 138.828125 189.6875 138.5625 191.074219 139.085938 192.34375 L 144.597656 221.722656 L 145.933594 222.820312 C 149.335938 225.617188 154.183594 225.292969 157.214844 222.394531 L 150.648438 199.566406 L 154.058594 199.757812 C 154.902344 199.804688 155.742188 199.59375 156.46875 199.15625 L 159.941406 197.058594 C 160.390625 196.789062 160.554688 196.222656 160.320312 195.753906 C 160.117188 195.34375 159.660156 195.125 159.210938 195.222656 L 156.066406 195.917969 L 159.0625 193.511719 C 159.34375 193.285156 159.5 192.945312 159.488281 192.585938 L 159.453125 191.496094 C 159.4375 190.992188 159.089844 190.558594 158.597656 190.433594 L 156.992188 190.019531 L 158.875 188.511719 C 159.488281 188.019531 159.785156 187.234375 159.652344 186.460938 C 159.449219 185.277344 158.324219 184.484375 157.140625 184.695312 L 146.898438 186.519531 Z M 290.042969 220.007812 L 258.453125 199.75 L 249.382812 187.988281 C 248.492188 186.835938 247.144531 186.125 245.691406 186.042969 L 239.324219 185.675781 C 238.914062 185.648438 238.507812 185.777344 238.1875 186.039062 L 236.113281 187.703125 L 229.203125 188.941406 C 228.675781 189.035156 228.277344 189.464844 228.214844 189.992188 C 228.082031 191.121094 228.980469 192.101562 230.117188 192.070312 L 231.484375 192.03125 L 227.242188 197.566406 C 226.667969 198.3125 226.851562 199.390625 227.644531 199.90625 C 228.066406 200.179688 228.59375 200.242188 229.070312 200.074219 L 236.617188 192.90625 C 237.191406 192.363281 238.007812 192.15625 238.773438 192.371094 L 239.722656 192.628906 L 233.316406 198.554688 L 233.164062 198.773438 C 232.09375 200.289062 232.527344 202.398438 234.113281 203.367188 L 234.546875 203.632812 C 235.519531 204.230469 236.695312 204.382812 237.78125 204.058594 L 242.472656 202.65625 C 243.027344 202.492188 243.617188 202.523438 244.144531 202.75 L 251.933594 206.070312 L 275.207031 236.203125 C 279.519531 241.789062 287.878906 242.007812 292.480469 236.652344 C 296.890625 231.515625 295.746094 223.664062 290.042969 220.007812 Z M 230.761719 157.617188 C 236.503906 156.75 242.535156 154.867188 242.535156 154.867188 C 242.574219 154.882812 242.601562 154.910156 242.636719 154.929688 L 241.96875 143.890625 C 246.570312 139.289062 253.566406 129.71875 248.15625 118.921875 C 243.894531 110.402344 240.054688 108.132812 234.429688 106.636719 C 227.007812 104.667969 218.988281 106.132812 212.988281 110.929688 C 210.628906 112.816406 208.816406 115.066406 208.59375 117.597656 C 208.386719 120.019531 207.277344 124.339844 208.273438 129.175781 C 208.988281 132.644531 209.148438 139.191406 210.203125 142.65625 C 212.464844 150.085938 217.6875 153.496094 219.816406 153.367188 C 220.292969 153.335938 220.769531 153.289062 221.25 153.234375 C 221.21875 153.324219 221.1875 153.410156 221.15625 153.5 C 221.15625 153.5 221.917969 154.246094 222.335938 155.96875 C 223.003906 156.492188 225.796875 158.367188 230.761719 157.617188 Z M 198.449219 346.191406 C 170.285156 340.957031 142.148438 326.917969 117.683594 307.484375 L 122.300781 305.554688 L 139.882812 300.230469 C 207.914062 301.882812 207.457031 324.089844 198.449219 346.191406 "/>
<g clip-path="url(#clip3)" clip-rule="nonzero">
<path style=" stroke:none;fill-rule:nonzero;fill:rgb(52.549744%,54.119873%,80.389404%);fill-opacity:1;" d="M 315.757812 130.785156 L 312.09375 111.585938 C 308.652344 112.242188 305.539062 113.796875 302.996094 115.992188 L 299.875 112.867188 L 294.792969 112.867188 L 294.792969 109.96875 L 282.195312 109.96875 L 282.195312 116.527344 L 294.792969 116.527344 L 294.792969 113.59375 L 299.574219 113.59375 L 302.464844 116.480469 C 298.625 120.050781 296.210938 125.128906 296.210938 130.785156 C 296.210938 141.578125 304.964844 150.332031 315.757812 150.332031 C 326.554688 150.332031 335.300781 141.578125 335.300781 130.785156 Z M 315.757812 111.238281 C 326.480469 111.238281 335.300781 120.0625 335.300781 130.785156 C 335.300781 119.988281 326.554688 111.238281 315.757812 111.238281 Z M 82.289062 70.503906 L 87.492188 70.503906 L 88.625 72.632812 C 88.839844 73.039062 89.421875 73.039062 89.636719 72.632812 L 90.769531 70.503906 L 95.972656 70.503906 C 96.433594 70.503906 96.804688 70.132812 96.804688 69.671875 L 96.804688 64.242188 C 96.804688 63.78125 96.433594 63.410156 95.972656 63.410156 L 82.289062 63.410156 C 81.828125 63.410156 81.457031 63.78125 81.457031 64.242188 L 81.457031 69.671875 C 81.457031 70.132812 81.828125 70.503906 82.289062 70.503906 Z M 145.308594 53.695312 C 145.308594 53.875 145.34375 54.042969 145.410156 54.195312 C 145.507812 54.425781 145.667969 54.617188 145.871094 54.757812 C 146.074219 54.890625 146.320312 54.972656 146.585938 54.972656 C 147.289062 54.972656 147.863281 54.398438 147.863281 53.695312 C 147.863281 52.988281 147.289062 52.414062 146.585938 52.414062 C 145.878906 52.414062 145.308594 52.988281 145.308594 53.695312 Z M 129.867188 67.03125 L 144.84375 54.664062 C 144.683594 54.375 144.585938 54.050781 144.585938 53.695312 C 144.585938 52.589844 145.480469 51.691406 146.585938 51.691406 C 147.6875 51.691406 148.589844 52.589844 148.589844 53.695312 C 148.589844 54.796875 147.6875 55.699219 146.585938 55.699219 C 146.097656 55.699219 145.652344 55.515625 145.304688 55.222656 L 130.355469 67.566406 C 130.222656 67.359375 130.0625 67.179688 129.867188 67.03125 Z M 127.09375 67.382812 L 122.109375 64.5 C 122.011719 64.726562 121.875 64.929688 121.710938 65.105469 L 126.753906 68.023438 C 126.832031 67.785156 126.945312 67.570312 127.09375 67.382812 Z M 88.027344 76.917969 C 88.152344 77.132812 88.332031 77.304688 88.554688 77.414062 C 88.730469 77.507812 88.921875 77.558594 89.132812 77.558594 C 89.714844 77.558594 90.207031 77.160156 90.359375 76.625 C 90.390625 76.515625 90.410156 76.402344 90.410156 76.28125 C 90.410156 76.148438 90.382812 76.023438 90.34375 75.898438 C 90.183594 75.382812 89.703125 75.003906 89.132812 75.003906 C 88.425781 75.003906 87.851562 75.578125 87.851562 76.28125 C 87.851562 76.515625 87.921875 76.730469 88.027344 76.917969 Z M 88.042969 77.957031 L 76.945312 89.691406 L 76.945312 88.636719 L 87.519531 77.457031 C 87.277344 77.128906 87.128906 76.722656 87.128906 76.28125 C 87.128906 75.179688 88.023438 74.28125 89.132812 74.28125 C 90.101562 74.28125 90.910156 74.972656 91.09375 75.886719 L 104.605469 75.664062 C 104.589844 75.761719 104.574219 75.859375 104.574219 75.960938 C 104.574219 76.105469 104.59375 76.246094 104.625 76.390625 L 91.101562 76.609375 C 90.945312 77.558594 90.125 78.285156 89.132812 78.285156 C 88.730469 78.285156 88.355469 78.164062 88.042969 77.957031 Z M 108.296875 74.945312 L 119.074219 65.339844 C 118.878906 65.195312 118.710938 65.019531 118.578125 64.8125 L 107.820312 74.402344 C 108.007812 74.550781 108.171875 74.734375 108.296875 74.945312 Z M 231.285156 38.328125 L 226.265625 38.328125 L 226.265625 39.050781 L 231.285156 39.050781 Z M 234.371094 35.527344 L 226.265625 35.527344 L 226.265625 36.25 L 234.371094 36.25 Z M 236.113281 32.730469 L 226.265625 32.730469 L 226.265625 33.453125 L 236.113281 33.453125 Z M 262.738281 38.328125 L 257.71875 38.328125 L 257.71875 39.050781 L 262.738281 39.050781 Z M 257.71875 36.25 L 270.75 36.25 L 270.75 35.527344 L 257.71875 35.527344 Z M 266.40625 32.730469 L 257.71875 32.730469 L 257.71875 33.453125 L 266.40625 33.453125 Z M 267.964844 47.773438 L 257.539062 47.773438 L 257.539062 76.972656 L 267.964844 76.972656 Z M 226.265625 76.972656 L 236.6875 76.972656 L 236.6875 52.382812 L 226.265625 52.382812 Z M 114.605469 123.800781 L 101.574219 123.800781 L 101.574219 124.523438 L 114.605469 124.523438 Z M 114.605469 134.695312 L 101.574219 134.695312 L 101.574219 135.421875 L 114.605469 135.421875 Z M 114.605469 145.59375 L 101.574219 145.59375 L 101.574219 146.316406 L 114.605469 146.316406 Z M 114.605469 167.378906 L 101.574219 167.378906 L 101.574219 168.105469 L 114.605469 168.105469 Z M 106.59375 170.179688 L 101.574219 170.179688 L 101.574219 170.902344 L 106.59375 170.902344 Z M 69.628906 164.632812 L 27.929688 164.632812 L 27.929688 170.855469 L 69.628906 170.855469 Z M 25.976562 120.035156 L 25.253906 120.035156 L 25.253906 170.855469 L 25.976562 170.855469 Z M 27.929688 148.558594 L 53.269531 148.558594 L 53.269531 142.335938 L 27.929688 142.335938 Z M 27.929688 137.410156 L 63.257812 137.410156 L 63.257812 131.183594 L 27.929688 131.183594 Z M 27.929688 126.265625 L 45.160156 126.265625 L 45.160156 120.035156 L 27.929688 120.035156 Z M 101.574219 165.308594 L 110.261719 165.308594 L 110.261719 164.582031 L 101.574219 164.582031 Z M 101.574219 149.117188 L 106.59375 149.117188 L 106.59375 148.390625 L 101.574219 148.390625 Z M 101.574219 143.515625 L 110.261719 143.515625 L 110.261719 142.792969 L 101.574219 142.792969 Z M 101.574219 138.21875 L 106.59375 138.21875 L 106.59375 137.496094 L 101.574219 137.496094 Z M 101.574219 132.621094 L 110.261719 132.621094 L 110.261719 131.898438 L 101.574219 131.898438 Z M 101.574219 127.324219 L 106.59375 127.324219 L 106.59375 126.601562 L 101.574219 126.601562 Z M 101.574219 121.726562 L 110.261719 121.726562 L 110.261719 121.003906 L 101.574219 121.003906 Z M 121.847656 177.828125 L 18.207031 177.828125 L 18.207031 112.96875 L 121.847656 112.96875 Z M 120.355469 259.640625 C 117.402344 259.640625 114.972656 261.851562 114.289062 264.820312 C 113.636719 267.636719 114.863281 269.851562 117.832031 269.851562 C 120.757812 269.851562 123.203125 267.882812 123.953125 264.640625 C 124.582031 261.914062 123.429688 259.640625 120.355469 259.640625 Z M 112.082031 259.800781 L 105.902344 259.800781 L 103.617188 269.6875 L 110.003906 269.6875 L 110.425781 267.855469 L 106.3125 267.855469 L 106.855469 265.507812 L 110.539062 265.507812 L 110.957031 263.6875 L 107.277344 263.6875 L 107.753906 261.632812 L 111.65625 261.632812 Z M 102.394531 260.078125 C 102.042969 259.875 101.207031 259.640625 100.03125 259.640625 C 97.003906 259.640625 94.136719 261.515625 93.355469 264.890625 C 92.703125 267.710938 93.996094 269.835938 97.453125 269.835938 C 98.671875 269.835938 99.660156 269.617188 100.121094 269.410156 L 100.183594 267.664062 C 99.699219 267.84375 98.90625 267.988281 98.222656 267.988281 C 96.203125 267.988281 95.304688 266.738281 95.761719 264.761719 C 96.269531 262.558594 97.914062 261.484375 99.710938 261.484375 C 100.511719 261.484375 101.109375 261.664062 101.523438 261.851562 Z M 142.703125 272.382812 L 73.464844 272.382812 L 78.429688 256.597656 L 149.949219 256.597656 Z M 119.886719 261.414062 C 118.355469 261.414062 117.132812 262.851562 116.691406 264.773438 C 116.242188 266.710938 116.847656 268.078125 118.363281 268.078125 C 119.890625 268.078125 121.097656 266.636719 121.542969 264.714844 C 121.953125 262.9375 121.445312 261.414062 119.886719 261.414062 Z M 263.433594 199.125 C 261.617188 199.125 260.910156 201.386719 261.859375 204.171875 C 262.808594 206.960938 265.054688 209.222656 266.871094 209.222656 C 268.691406 209.222656 269.398438 206.960938 268.449219 204.171875 C 267.496094 201.386719 265.253906 199.125 263.433594 199.125 Z M 262.007812 286.597656 L 263.121094 303.898438 C 261.027344 312.675781 257.550781 322.84375 251.933594 329.402344 C 242.789062 340.066406 214.804688 345.230469 203.085938 346.972656 C 201.347656 346.707031 199.609375 346.417969 197.875 346.089844 C 197.988281 327.101562 183.527344 311.027344 164.4375 309.324219 L 121.859375 305.515625 C 121.859375 305.515625 149.792969 294.703125 175.328125 286.597656 L 262.007812 286.597656 "/>
</g>
<g clip-path="url(#clip4)" clip-rule="nonzero">
<path style=" stroke:none;fill-rule:nonzero;fill:rgb(18.818665%,32.159424%,41.569519%);fill-opacity:1;" d="M 338.777344 138.84375 L 338.777344 141.757812 L 335.445312 141.757812 L 333.152344 139.640625 C 334.523438 136.972656 335.300781 133.964844 335.300781 130.785156 C 335.300781 130.699219 335.300781 130.617188 335.300781 130.53125 L 315.757812 130.785156 L 307.246094 148.378906 C 309.902344 149.664062 312.808594 150.332031 315.757812 150.332031 C 323.035156 150.332031 329.433594 146.261719 332.796875 140.296875 L 335.160156 142.480469 L 338.777344 142.480469 L 338.777344 145.398438 L 351.371094 145.398438 L 351.371094 138.84375 Z M 286.992188 153.402344 L 281.972656 153.402344 L 281.972656 154.125 L 286.992188 154.125 Z M 295.003906 150.601562 L 281.972656 150.601562 L 281.972656 151.328125 L 295.003906 151.328125 Z M 290.660156 147.804688 L 281.972656 147.804688 L 281.972656 148.53125 L 290.660156 148.53125 Z M 286.992188 142.507812 L 281.972656 142.507812 L 281.972656 143.234375 L 286.992188 143.234375 Z M 295.003906 139.710938 L 281.972656 139.710938 L 281.972656 140.433594 L 295.003906 140.433594 Z M 290.660156 136.910156 L 281.972656 136.910156 L 281.972656 137.632812 L 290.660156 137.632812 Z M 114.25 88.320312 L 114.25 82.890625 C 114.25 82.429688 113.878906 82.058594 113.417969 82.058594 L 108.21875 82.058594 L 107.085938 79.929688 C 106.867188 79.523438 106.289062 79.523438 106.074219 79.929688 L 104.933594 82.058594 L 99.734375 82.058594 C 99.277344 82.058594 98.902344 82.429688 98.902344 82.890625 L 98.902344 88.320312 C 98.902344 88.78125 99.277344 89.152344 99.734375 89.152344 L 113.417969 89.152344 C 113.878906 89.152344 114.25 88.78125 114.25 88.320312 Z M 113.417969 57.675781 L 118.621094 57.675781 L 119.753906 59.804688 C 119.96875 60.207031 120.546875 60.207031 120.765625 59.804688 L 121.898438 57.675781 L 127.101562 57.675781 C 127.5625 57.675781 127.933594 57.304688 127.933594 56.84375 L 127.933594 51.414062 C 127.933594 50.957031 127.5625 50.582031 127.101562 50.582031 L 113.417969 50.582031 C 112.957031 50.582031 112.585938 50.957031 112.585938 51.414062 L 112.585938 56.84375 C 112.585938 57.304688 112.957031 57.675781 113.417969 57.675781 Z M 121.539062 63.734375 C 121.539062 63.027344 120.964844 62.453125 120.257812 62.453125 C 119.550781 62.453125 118.980469 63.027344 118.980469 63.734375 C 118.980469 63.945312 119.039062 64.140625 119.128906 64.320312 C 119.246094 64.539062 119.417969 64.71875 119.632812 64.839844 C 119.816406 64.949219 120.03125 65.011719 120.257812 65.011719 C 120.5625 65.011719 120.832031 64.902344 121.054688 64.726562 C 121.246094 64.574219 121.390625 64.371094 121.46875 64.128906 C 121.507812 64.007812 121.539062 63.875 121.539062 63.734375 Z M 122.261719 63.734375 C 122.261719 64.007812 122.207031 64.261719 122.109375 64.5 C 122.011719 64.726562 121.875 64.929688 121.710938 65.105469 C 121.34375 65.492188 120.832031 65.738281 120.257812 65.738281 C 119.816406 65.738281 119.410156 65.585938 119.074219 65.339844 C 118.878906 65.195312 118.710938 65.019531 118.578125 64.8125 C 118.375 64.5 118.257812 64.128906 118.257812 63.734375 C 118.257812 62.628906 119.152344 61.730469 120.257812 61.730469 C 121.363281 61.730469 122.261719 62.628906 122.261719 63.734375 Z M 105.296875 75.960938 C 105.296875 76.105469 105.328125 76.246094 105.375 76.375 C 105.550781 76.875 106.019531 77.238281 106.578125 77.238281 C 107.28125 77.238281 107.855469 76.664062 107.855469 75.960938 C 107.855469 75.773438 107.8125 75.597656 107.742188 75.4375 C 107.640625 75.214844 107.476562 75.019531 107.273438 74.886719 C 107.074219 74.757812 106.832031 74.679688 106.578125 74.679688 C 105.980469 74.679688 105.476562 75.09375 105.339844 75.652344 C 105.3125 75.75 105.296875 75.851562 105.296875 75.960938 Z M 104.625 76.390625 C 104.59375 76.246094 104.574219 76.105469 104.574219 75.960938 C 104.574219 75.859375 104.589844 75.761719 104.605469 75.664062 C 104.75 74.699219 105.574219 73.953125 106.578125 73.953125 C 107.046875 73.953125 107.476562 74.128906 107.820312 74.402344 C 108.007812 74.550781 108.171875 74.734375 108.296875 74.945312 C 108.472656 75.242188 108.582031 75.589844 108.582031 75.960938 C 108.582031 77.0625 107.679688 77.960938 106.578125 77.960938 C 105.621094 77.960938 104.820312 77.285156 104.625 76.390625 Z M 204.683594 77.332031 L 215.480469 77.332031 L 215.480469 78.453125 L 216.203125 78.453125 L 216.203125 77.332031 L 223.296875 77.332031 L 223.296875 78.453125 L 224.019531 78.453125 L 224.019531 77.332031 L 231.113281 77.332031 L 231.113281 78.453125 L 231.839844 78.453125 L 231.839844 77.332031 L 238.933594 77.332031 L 238.933594 78.453125 L 239.65625 78.453125 L 239.65625 77.332031 L 246.753906 77.332031 L 246.753906 78.453125 L 247.476562 78.453125 L 247.476562 77.332031 L 254.570312 77.332031 L 254.570312 78.453125 L 255.296875 78.453125 L 255.296875 77.332031 L 262.386719 77.332031 L 262.386719 78.453125 L 263.113281 78.453125 L 263.113281 77.332031 L 274.527344 77.332031 L 274.527344 76.609375 L 263.113281 76.609375 L 263.113281 75.492188 L 262.386719 75.492188 L 262.386719 76.609375 L 255.296875 76.609375 L 255.296875 75.492188 L 254.570312 75.492188 L 254.570312 76.609375 L 247.476562 76.609375 L 247.476562 75.492188 L 246.753906 75.492188 L 246.753906 76.609375 L 239.65625 76.609375 L 239.65625 75.492188 L 238.933594 75.492188 L 238.933594 76.609375 L 231.839844 76.609375 L 231.839844 75.492188 L 231.113281 75.492188 L 231.113281 76.609375 L 224.019531 76.609375 L 224.019531 75.492188 L 223.296875 75.492188 L 223.296875 76.609375 L 216.203125 76.609375 L 216.203125 75.492188 L 215.480469 75.492188 L 215.480469 76.609375 L 205.40625 76.609375 L 205.40625 72.367188 L 206.527344 72.367188 L 206.527344 71.640625 L 205.40625 71.640625 L 205.40625 65.929688 L 206.527344 65.929688 L 206.527344 65.207031 L 205.40625 65.207031 L 205.40625 59.496094 L 206.527344 59.496094 L 206.527344 58.773438 L 205.40625 58.773438 L 205.40625 53.058594 L 206.527344 53.058594 L 206.527344 52.335938 L 205.40625 52.335938 L 205.40625 46.625 L 206.527344 46.625 L 206.527344 45.898438 L 205.40625 45.898438 L 205.40625 40.191406 L 206.527344 40.191406 L 206.527344 39.464844 L 205.40625 39.464844 L 205.40625 33.753906 L 206.527344 33.753906 L 206.527344 33.03125 L 205.40625 33.03125 L 205.40625 30.59375 L 204.683594 30.59375 L 204.683594 33.03125 L 203.566406 33.03125 L 203.566406 33.753906 L 204.683594 33.753906 L 204.683594 39.464844 L 203.566406 39.464844 L 203.566406 40.191406 L 204.683594 40.191406 L 204.683594 45.898438 L 203.566406 45.898438 L 203.566406 46.625 L 204.683594 46.625 L 204.683594 52.335938 L 203.566406 52.335938 L 203.566406 53.058594 L 204.683594 53.058594 L 204.683594 58.773438 L 203.566406 58.773438 L 203.566406 59.496094 L 204.683594 59.496094 L 204.683594 65.207031 L 203.566406 65.207031 L 203.566406 65.929688 L 204.683594 65.929688 L 204.683594 71.640625 L 203.566406 71.640625 L 203.566406 72.367188 L 204.683594 72.367188 Z M 27.929688 159.707031 L 87.871094 159.707031 L 87.871094 153.480469 L 27.929688 153.480469 Z M 106.59375 159.289062 L 101.574219 159.289062 L 101.574219 160.011719 L 106.59375 160.011719 Z M 101.574219 157.210938 L 114.605469 157.210938 L 114.605469 156.488281 L 101.574219 156.488281 Z M 101.574219 153.6875 L 101.574219 154.414062 L 110.261719 154.414062 L 110.261719 153.6875 Z M 243.878906 165.457031 C 243.96875 165.507812 244.089844 165.476562 244.136719 165.382812 C 244.21875 165.234375 244.253906 165.089844 244.28125 164.941406 C 244.3125 164.796875 244.308594 164.652344 244.308594 164.507812 C 244.296875 164.363281 244.285156 164.214844 244.234375 164.074219 C 244.195312 163.929688 244.148438 163.785156 244.054688 163.644531 C 244.042969 163.625 244.023438 163.605469 244 163.59375 C 243.921875 163.550781 243.824219 163.578125 243.78125 163.652344 C 243.695312 163.804688 243.65625 163.949219 243.628906 164.09375 C 243.589844 164.242188 243.589844 164.386719 243.585938 164.53125 C 243.589844 164.675781 243.601562 164.820312 243.640625 164.960938 C 243.675781 165.105469 243.722656 165.25 243.8125 165.394531 C 243.824219 165.417969 243.851562 165.441406 243.878906 165.457031 Z M 218.34375 167.316406 C 218.433594 167.34375 218.527344 167.292969 218.558594 167.207031 C 218.660156 166.898438 218.722656 166.597656 218.789062 166.296875 C 218.859375 165.996094 218.90625 165.699219 218.964844 165.398438 C 219.015625 165.097656 219.074219 164.796875 219.113281 164.492188 C 219.15625 164.1875 219.203125 163.882812 219.21875 163.558594 C 219.21875 163.511719 219.199219 163.460938 219.15625 163.433594 C 219.089844 163.386719 219 163.40625 218.957031 163.472656 C 218.769531 163.742188 218.636719 164.039062 218.523438 164.335938 C 218.402344 164.636719 218.320312 164.953125 218.257812 165.265625 C 218.199219 165.582031 218.152344 165.902344 218.152344 166.222656 C 218.148438 166.546875 218.160156 166.867188 218.230469 167.191406 C 218.242188 167.246094 218.285156 167.296875 218.34375 167.316406 Z M 221.804688 163.414062 C 221.800781 163.480469 221.835938 163.546875 221.894531 163.578125 C 221.980469 163.617188 222.082031 163.582031 222.121094 163.5 C 222.347656 163.03125 222.34375 162.472656 222.226562 161.980469 C 222.113281 161.480469 221.882812 161.03125 221.621094 160.621094 C 221.351562 160.21875 221.066406 159.847656 220.789062 159.492188 C 220.511719 159.128906 220.261719 158.765625 220.050781 158.363281 C 220.023438 158.3125 219.96875 158.28125 219.910156 158.285156 C 219.832031 158.292969 219.777344 158.363281 219.785156 158.441406 C 219.839844 158.9375 220.042969 159.402344 220.277344 159.820312 C 220.503906 160.246094 220.773438 160.628906 221.011719 161.007812 C 221.25 161.382812 221.457031 161.769531 221.613281 162.167969 C 221.761719 162.5625 221.839844 162.976562 221.804688 163.410156 Z M 145.710938 181.6875 C 145.332031 180.164062 144.914062 178.648438 144.519531 177.132812 L 143.234375 172.597656 C 142.785156 171.089844 142.332031 169.585938 141.835938 168.09375 C 141.808594 168.015625 141.726562 167.96875 141.644531 167.984375 C 141.554688 168.003906 141.5 168.09375 141.519531 168.179688 C 141.851562 169.71875 142.230469 171.242188 142.617188 172.769531 L 143.820312 177.320312 C 144.257812 178.832031 144.671875 180.347656 145.121094 181.851562 C 145.570312 183.355469 146.027344 184.859375 146.53125 186.351562 C 146.535156 186.359375 146.542969 186.367188 146.550781 186.375 C 146.054688 186.445312 145.558594 186.523438 145.066406 186.625 C 144.550781 186.730469 144.039062 186.839844 143.53125 186.996094 C 143.472656 187.015625 143.433594 187.0625 143.429688 187.125 C 143.425781 187.199219 143.488281 187.269531 143.566406 187.273438 C 144.097656 187.289062 144.621094 187.261719 145.148438 187.230469 C 145.671875 187.203125 146.191406 187.144531 146.710938 187.082031 C 147.230469 187.011719 147.75 186.941406 148.261719 186.835938 C 148.777344 186.738281 149.292969 186.628906 149.800781 186.476562 C 149.867188 186.457031 149.917969 186.394531 149.921875 186.320312 C 149.921875 186.230469 149.847656 186.15625 149.757812 186.152344 C 149.226562 186.136719 148.703125 186.164062 148.179688 186.199219 C 147.710938 186.230469 147.246094 186.285156 146.785156 186.34375 C 146.789062 186.320312 146.800781 186.300781 146.796875 186.277344 C 146.46875 184.742188 146.089844 183.214844 145.710938 181.6875 Z M 202.382812 230.90625 L 192.539062 230.808594 C 192.539062 230.800781 192.535156 230.792969 192.53125 230.785156 L 187.984375 230.785156 L 187.984375 230.789062 L 181.050781 230.765625 L 170.386719 230.726562 C 166.914062 230.703125 163.441406 230.71875 159.96875 230.734375 L 155.734375 216.320312 L 153.566406 208.996094 L 151.359375 201.683594 C 151.335938 201.613281 151.261719 201.570312 151.191406 201.589844 C 151.117188 201.609375 151.074219 201.6875 151.09375 201.757812 L 153.132812 209.121094 L 155.214844 216.472656 L 159.398438 231.164062 C 159.4375 231.304688 159.570312 231.410156 159.722656 231.410156 C 163.277344 231.425781 166.832031 231.441406 170.386719 231.417969 L 181.050781 231.378906 L 187.984375 231.359375 L 187.984375 237.433594 C 187.984375 241.628906 190.773438 245.121094 194.230469 245.238281 L 195.339844 245.273438 C 195.539062 242.371094 195.195312 239.429688 194.273438 236.609375 C 193.746094 234.984375 193.207031 233.203125 192.683594 231.335938 L 202.382812 231.234375 C 202.472656 231.234375 202.546875 231.164062 202.546875 231.074219 C 202.546875 230.984375 202.476562 230.90625 202.382812 230.90625 Z M 203.164062 229.769531 L 198.488281 213.667969 L 193.742188 197.585938 L 192.644531 193.871094 C 192.675781 193.609375 192.703125 193.347656 192.761719 193.085938 C 192.847656 192.722656 192.910156 192.355469 193.019531 191.992188 C 193.207031 191.269531 193.429688 190.554688 193.671875 189.84375 C 194.160156 188.417969 194.679688 187 195.253906 185.601562 C 196.355469 182.785156 197.578125 180.015625 198.742188 177.214844 C 198.769531 177.152344 198.746094 177.078125 198.6875 177.042969 C 198.617188 177.003906 198.53125 177.027344 198.496094 177.09375 C 197.75 178.421875 197.066406 179.78125 196.414062 181.15625 C 195.761719 182.53125 195.167969 183.929688 194.578125 185.335938 C 194.03125 186.753906 193.5 188.183594 193.0625 189.648438 C 192.757812 190.699219 192.480469 191.773438 192.351562 192.875 L 188.996094 181.503906 C 187.429688 176.136719 185.789062 170.796875 184.1875 165.441406 C 184.148438 165.300781 184.019531 165.203125 183.863281 165.207031 L 162.671875 165.925781 C 155.609375 166.152344 148.546875 166.441406 141.484375 166.714844 C 141.410156 166.714844 141.347656 166.777344 141.351562 166.855469 C 141.355469 166.929688 141.417969 166.992188 141.492188 166.988281 C 148.558594 166.820312 155.625 166.671875 162.691406 166.457031 L 183.632812 165.863281 C 185.195312 171.144531 186.726562 176.433594 188.320312 181.703125 L 193.144531 197.765625 L 197.964844 213.824219 L 202.851562 229.863281 C 202.875 229.949219 202.96875 230 203.054688 229.976562 C 203.140625 229.949219 203.191406 229.859375 203.164062 229.769531 Z M 147.820312 199.546875 C 148.652344 199.648438 149.476562 199.703125 150.300781 199.746094 C 151.128906 199.800781 151.957031 199.820312 152.785156 199.839844 L 154.027344 199.847656 C 154.464844 199.839844 154.910156 199.800781 155.328125 199.6875 C 156.175781 199.480469 156.945312 199.113281 157.667969 198.703125 C 157.734375 198.660156 157.765625 198.582031 157.742188 198.507812 C 157.714844 198.417969 157.621094 198.375 157.53125 198.402344 C 156.746094 198.65625 155.976562 198.933594 155.199219 199.0625 C 154.808594 199.117188 154.425781 199.152344 154.035156 199.140625 L 152.792969 199.113281 C 151.96875 199.113281 151.140625 199.109375 150.308594 199.136719 C 149.484375 199.164062 148.65625 199.195312 147.828125 199.273438 C 147.761719 199.277344 147.707031 199.328125 147.703125 199.394531 C 147.691406 199.472656 147.746094 199.539062 147.820312 199.546875 Z M 151.007812 196.746094 C 152.066406 196.703125 153.105469 196.679688 154.179688 196.542969 C 154.714844 196.46875 155.253906 196.347656 155.769531 196.121094 C 156.269531 195.890625 156.75 195.527344 157.027344 195.039062 C 157.058594 194.980469 157.046875 194.90625 156.996094 194.863281 C 156.9375 194.8125 156.847656 194.820312 156.796875 194.882812 C 156.152344 195.652344 155.113281 195.867188 154.113281 195.9375 C 153.097656 195.992188 152.035156 196.019531 150.996094 196.019531 C 149.953125 196.050781 148.910156 196.039062 147.863281 196.050781 C 146.816406 196.066406 145.765625 196.074219 144.714844 196.132812 C 144.636719 196.132812 144.570312 196.195312 144.558594 196.277344 C 144.550781 196.367188 144.617188 196.449219 144.707031 196.460938 C 145.753906 196.574219 146.800781 196.644531 147.851562 196.695312 C 148.902344 196.742188 149.953125 196.746094 151.007812 196.746094 Z M 158.53125 188.234375 C 158.492188 188.171875 158.402344 188.148438 158.339844 188.1875 C 157.355469 188.789062 156.394531 189.421875 155.441406 190.066406 C 154.492188 190.691406 153.535156 191.417969 152.625 192 C 151.71875 192.539062 150.585938 192.640625 149.460938 192.691406 C 148.328125 192.75 147.148438 192.722656 145.996094 192.996094 C 145.917969 193.019531 145.863281 193.089844 145.871094 193.171875 C 145.878906 193.265625 145.957031 193.328125 146.050781 193.320312 C 147.175781 193.222656 148.308594 193.324219 149.472656 193.332031 C 150.625 193.335938 151.878906 193.25 152.984375 192.625 C 153.53125 192.28125 153.9375 191.941406 154.417969 191.597656 C 154.878906 191.253906 155.347656 190.917969 155.796875 190.5625 C 156.710938 189.863281 157.617188 189.15625 158.503906 188.414062 C 158.554688 188.367188 158.566406 188.296875 158.53125 188.234375 Z M 265.71875 204.550781 C 265.496094 203.992188 265.253906 203.441406 264.988281 202.898438 C 264.84375 202.59375 264.675781 202.296875 264.515625 202 C 264.363281 201.703125 264.179688 201.417969 263.996094 201.128906 C 263.960938 201.082031 263.902344 201.058594 263.84375 201.070312 C 263.769531 201.089844 263.722656 201.167969 263.742188 201.242188 C 263.828125 201.570312 263.914062 201.898438 264.027344 202.214844 C 264.136719 202.535156 264.238281 202.855469 264.367188 203.167969 C 264.613281 203.792969 264.875 204.410156 265.171875 205.015625 L 265.1875 205.042969 C 265.242188 205.15625 265.355469 205.226562 265.488281 205.21875 C 266.105469 205.1875 266.726562 205.144531 267.34375 205.042969 C 267.410156 205.03125 267.46875 204.976562 267.480469 204.90625 C 267.496094 204.816406 267.433594 204.730469 267.34375 204.714844 C 266.800781 204.625 266.261719 204.582031 265.71875 204.550781 Z M 155.433594 309.121094 C 155.410156 309.03125 155.320312 308.980469 155.234375 309.003906 C 152.992188 309.59375 150.75 310.207031 148.523438 310.847656 L 141.84375 312.800781 L 135.195312 314.847656 C 132.980469 315.542969 130.777344 316.261719 128.574219 317.003906 C 128.507812 317.027344 128.46875 317.097656 128.488281 317.167969 C 128.503906 317.246094 128.582031 317.285156 128.65625 317.265625 C 130.902344 316.679688 133.140625 316.070312 135.371094 315.433594 L 142.050781 313.496094 L 148.707031 311.460938 C 150.921875 310.773438 153.128906 310.054688 155.328125 309.316406 C 155.410156 309.289062 155.457031 309.203125 155.433594 309.121094 Z M 143.25 271.53125 C 143.847656 270.445312 144.398438 269.339844 144.941406 268.234375 C 145.488281 267.121094 146.003906 266 146.53125 264.882812 C 147.03125 263.75 147.550781 262.628906 148.035156 261.492188 C 148.519531 260.355469 149 259.210938 149.433594 258.050781 C 149.457031 257.988281 149.429688 257.917969 149.371094 257.882812 C 149.304688 257.847656 149.21875 257.867188 149.183594 257.9375 C 148.585938 259.023438 148.027344 260.128906 147.480469 261.234375 C 146.929688 262.34375 146.410156 263.464844 145.875 264.578125 C 145.371094 265.707031 144.851562 266.828125 144.359375 267.964844 C 143.875 269.101562 143.390625 270.238281 142.953125 271.398438 C 142.925781 271.472656 142.953125 271.558594 143.027344 271.597656 C 143.105469 271.644531 143.207031 271.613281 143.25 271.53125 Z M 236.625 187.148438 C 236.121094 187.507812 235.648438 187.898438 235.179688 188.296875 C 234.707031 188.6875 234.257812 189.105469 233.808594 189.523438 C 233.367188 189.945312 232.925781 190.371094 232.503906 190.816406 C 232.082031 191.265625 231.664062 191.714844 231.28125 192.199219 C 231.238281 192.257812 231.230469 192.339844 231.277344 192.398438 C 231.328125 192.472656 231.433594 192.492188 231.503906 192.4375 C 232.007812 192.074219 232.480469 191.683594 232.949219 191.285156 C 233.414062 190.886719 233.859375 190.46875 234.308594 190.046875 C 234.746094 189.617188 235.183594 189.191406 235.601562 188.738281 C 236.019531 188.292969 236.433594 187.835938 236.816406 187.351562 C 236.855469 187.300781 236.859375 187.234375 236.820312 187.183594 C 236.777344 187.121094 236.6875 187.105469 236.625 187.148438 Z M 248.238281 200.863281 C 248.300781 200.828125 248.335938 200.757812 248.320312 200.683594 C 248.300781 200.597656 248.210938 200.539062 248.121094 200.558594 C 247.59375 200.667969 247.085938 200.824219 246.574219 200.972656 C 246.066406 201.121094 245.5625 201.289062 245.058594 201.453125 C 244.558594 201.628906 244.054688 201.796875 243.558594 201.992188 C 243.0625 202.179688 242.566406 202.371094 242.074219 202.597656 C 242.023438 202.625 241.992188 202.679688 241.996094 202.738281 C 242.003906 202.816406 242.074219 202.871094 242.148438 202.863281 C 242.6875 202.808594 243.214844 202.699219 243.738281 202.574219 C 244.214844 202.46875 244.675781 202.328125 245.140625 202.1875 C 245.144531 202.207031 245.136719 202.226562 245.152344 202.246094 C 245.296875 202.46875 245.5 202.636719 245.722656 202.777344 C 245.945312 202.917969 246.199219 203.003906 246.457031 203.0625 C 246.714844 203.109375 246.980469 203.128906 247.242188 203.085938 C 247.503906 203.046875 247.757812 202.964844 247.976562 202.820312 C 248.015625 202.789062 248.046875 202.746094 248.050781 202.695312 C 248.0625 202.597656 247.996094 202.511719 247.898438 202.503906 L 247.890625 202.503906 C 247.652344 202.476562 247.4375 202.46875 247.222656 202.441406 C 247.011719 202.414062 246.800781 202.390625 246.59375 202.351562 C 246.386719 202.320312 246.179688 202.265625 245.96875 202.214844 C 245.8125 202.175781 245.644531 202.125 245.476562 202.074219 C 245.921875 201.917969 246.363281 201.761719 246.792969 201.574219 C 247.289062 201.363281 247.773438 201.136719 248.238281 200.863281 Z M 233.898438 202.761719 L 236.792969 200.90625 C 237.761719 200.300781 238.726562 199.6875 239.71875 199.121094 C 240.691406 198.523438 241.6875 197.964844 242.6875 197.40625 L 245.695312 195.75 C 245.765625 195.710938 245.796875 195.625 245.769531 195.546875 C 245.738281 195.460938 245.644531 195.417969 245.554688 195.449219 C 244.476562 195.855469 243.421875 196.328125 242.386719 196.839844 C 241.351562 197.351562 240.34375 197.917969 239.347656 198.5 C 238.367188 199.105469 237.390625 199.726562 236.453125 200.402344 C 235.515625 201.074219 234.601562 201.777344 233.734375 202.542969 C 233.683594 202.585938 233.671875 202.660156 233.710938 202.71875 C 233.75 202.785156 233.835938 202.804688 233.898438 202.761719 Z M 294.21875 239 C 292.882812 240.394531 291.144531 241.394531 289.289062 241.960938 C 287.429688 242.527344 285.421875 242.640625 283.488281 242.253906 C 283.40625 242.234375 283.324219 242.289062 283.300781 242.367188 C 283.273438 242.453125 283.324219 242.546875 283.414062 242.574219 C 285.367188 243.144531 287.488281 243.113281 289.464844 242.578125 C 291.445312 242.042969 293.289062 240.976562 294.738281 239.5 C 296.164062 238.003906 297.167969 236.125 297.628906 234.132812 C 298.101562 232.136719 298.058594 230.019531 297.425781 228.089844 C 297.402344 228.023438 297.332031 227.980469 297.261719 228 C 297.1875 228.019531 297.136719 228.089844 297.160156 228.164062 C 297.605469 230.085938 297.550781 232.101562 297.039062 233.980469 C 296.527344 235.855469 295.582031 237.621094 294.21875 239 Z M 253.207031 174.753906 C 253.414062 174.507812 253.65625 174.285156 253.878906 174.046875 C 254.125 173.835938 254.363281 173.613281 254.621094 173.414062 C 255.125 172.996094 255.683594 172.632812 256.25 172.320312 L 256.261719 172.316406 C 256.320312 172.28125 256.347656 172.207031 256.320312 172.144531 C 256.292969 172.070312 256.214844 172.039062 256.140625 172.066406 C 254.867188 172.570312 253.722656 173.351562 252.757812 174.335938 C 251.796875 175.316406 251.027344 176.507812 250.574219 177.816406 C 250.429688 178.136719 250.390625 178.488281 250.296875 178.820312 L 250.175781 179.324219 L 250.117188 179.835938 C 250.085938 180.183594 250.03125 180.523438 250.023438 180.867188 C 250.03125 181.210938 250.042969 181.554688 250.0625 181.894531 C 250.0625 182.242188 250.117188 182.578125 250.183594 182.910156 L 250.359375 183.917969 C 250.542969 184.570312 250.757812 185.214844 250.972656 185.855469 C 250.996094 185.929688 251.078125 185.976562 251.15625 185.960938 C 251.246094 185.945312 251.300781 185.859375 251.289062 185.773438 L 251.28125 185.75 C 251.160156 185.097656 250.992188 184.460938 250.878906 183.816406 L 250.761719 182.839844 C 250.71875 182.515625 250.683594 182.191406 250.699219 181.863281 C 250.632812 180.5625 250.851562 179.273438 251.253906 178.058594 C 251.640625 176.828125 252.355469 175.726562 253.207031 174.753906 Z M 219.796875 170.78125 C 220.246094 171.164062 220.804688 171.386719 221.355469 171.53125 C 222.46875 171.777344 223.566406 171.855469 224.683594 171.90625 C 226.90625 171.980469 229.128906 171.71875 231.300781 171.289062 C 233.472656 170.824219 235.597656 170.1875 237.667969 169.421875 C 239.738281 168.667969 241.761719 167.792969 243.773438 166.902344 C 243.847656 166.867188 243.886719 166.777344 243.859375 166.695312 C 243.824219 166.613281 243.734375 166.566406 243.648438 166.597656 C 241.582031 167.347656 239.523438 168.117188 237.453125 168.820312 C 235.382812 169.519531 233.289062 170.152344 231.15625 170.582031 C 229.027344 171.042969 226.863281 171.292969 224.691406 171.292969 C 223.613281 171.292969 222.503906 171.242188 221.464844 171.058594 C 220.945312 170.957031 220.445312 170.789062 220.035156 170.484375 C 219.625 170.179688 219.296875 169.746094 219.210938 169.242188 C 219.203125 169.171875 219.136719 169.121094 219.0625 169.125 C 218.988281 169.132812 218.933594 169.203125 218.9375 169.277344 C 219 169.875 219.351562 170.40625 219.796875 170.78125 Z M 218.167969 146.710938 C 218.34375 146.78125 218.527344 146.808594 218.714844 146.832031 C 218.902344 146.847656 219.089844 146.851562 219.273438 146.820312 C 219.460938 146.792969 219.644531 146.75 219.828125 146.65625 C 219.859375 146.636719 219.890625 146.605469 219.910156 146.566406 C 219.949219 146.472656 219.902344 146.371094 219.808594 146.332031 C 219.632812 146.25 219.457031 146.21875 219.289062 146.179688 C 219.117188 146.140625 218.945312 146.128906 218.773438 146.113281 C 218.605469 146.105469 218.433594 146.09375 218.257812 146.105469 C 218.082031 146.117188 217.902344 146.128906 217.710938 146.175781 C 217.679688 146.1875 217.648438 146.207031 217.625 146.230469 C 217.574219 146.300781 217.585938 146.394531 217.65625 146.449219 C 217.8125 146.574219 217.988281 146.648438 218.167969 146.710938 Z M 225.371094 143.328125 C 225.433594 143.285156 225.460938 143.199219 225.429688 143.125 C 225.398438 143.042969 225.300781 143 225.214844 143.035156 C 224.4375 143.351562 223.652344 143.621094 222.847656 143.820312 C 222.046875 144.011719 221.230469 144.152344 220.410156 144.214844 C 219.589844 144.285156 218.765625 144.277344 217.941406 144.214844 C 217.113281 144.148438 216.292969 144.011719 215.472656 143.820312 C 215.414062 143.808594 215.34375 143.839844 215.316406 143.898438 C 215.285156 143.96875 215.316406 144.050781 215.382812 144.085938 C 216.167969 144.445312 217.011719 144.679688 217.867188 144.824219 C 218.722656 144.96875 219.601562 144.996094 220.46875 144.9375 C 221.335938 144.867188 222.199219 144.707031 223.027344 144.433594 C 223.851562 144.164062 224.652344 143.804688 225.371094 143.328125 Z M 212.011719 127.503906 C 211.425781 127.503906 210.949219 128.238281 210.949219 129.144531 C 210.949219 130.050781 211.425781 130.785156 212.011719 130.785156 C 212.59375 130.785156 213.074219 130.050781 213.074219 129.144531 C 213.074219 128.238281 212.59375 127.503906 212.011719 127.503906 Z M 222.75 127.503906 C 222.164062 127.503906 221.691406 128.238281 221.691406 129.144531 C 221.691406 130.050781 222.164062 130.785156 222.75 130.785156 C 223.335938 130.785156 223.8125 130.050781 223.8125 129.144531 C 223.8125 128.238281 223.335938 127.503906 222.75 127.503906 Z M 259.078125 216.742188 C 259.269531 216.996094 259.632812 217.046875 259.886719 216.851562 C 260.949219 216.054688 263.539062 213.820312 265.027344 210.195312 C 265.257812 210.257812 265.488281 210.292969 265.707031 210.292969 C 266.167969 210.292969 266.554688 210.144531 266.863281 209.886719 L 267.945312 208.878906 C 267.648438 209.097656 267.292969 209.222656 266.871094 209.222656 C 265.054688 209.222656 262.808594 206.960938 261.859375 204.171875 C 261.152344 202.09375 261.363281 200.308594 262.273438 199.535156 L 262.273438 199.53125 L 261.105469 200.609375 C 260.199219 201.386719 259.988281 203.167969 260.695312 205.246094 C 260.839844 205.671875 261.019531 206.085938 261.21875 206.480469 C 260.617188 207.664062 259.082031 210.292969 256.453125 212.398438 C 256.203125 212.597656 256.152344 212.957031 256.347656 213.210938 Z M 247.65625 174.203125 C 246.785156 173.699219 245.667969 173.996094 245.160156 174.871094 L 238.902344 185.707031 C 239.042969 185.683594 239.183594 185.664062 239.324219 185.675781 L 243.019531 185.886719 L 248.328125 176.699219 C 248.832031 175.824219 248.53125 174.707031 247.65625 174.203125 Z M 233.289062 198.59375 C 233.34375 198.644531 233.429688 198.648438 233.480469 198.59375 C 234.210938 197.882812 234.929688 197.175781 235.671875 196.492188 C 236.421875 195.8125 237.164062 195.128906 237.949219 194.5 C 238.335938 194.175781 238.722656 193.851562 239.117188 193.539062 C 239.484375 193.230469 239.890625 193.058594 240.351562 192.898438 C 241.265625 192.609375 242.316406 192.546875 243.304688 192.171875 C 243.375 192.140625 243.421875 192.0625 243.40625 191.984375 C 243.386719 191.894531 243.300781 191.839844 243.210938 191.855469 C 242.238281 192.054688 241.222656 192.03125 240.175781 192.28125 C 239.800781 192.371094 239.410156 192.527344 239.066406 192.734375 L 239.207031 192.488281 L 238.773438 192.371094 C 238.007812 192.15625 237.191406 192.363281 236.617188 192.90625 L 232.476562 196.839844 L 226.398438 207.367188 L 225.664062 211.527344 C 225.621094 211.757812 225.882812 211.917969 226.070312 211.78125 L 229.566406 209.195312 L 233.332031 202.671875 C 232.429688 201.585938 232.300781 199.992188 233.164062 198.773438 Z M 207.878906 124.265625 L 211.847656 124.675781 C 211.796875 124.65625 211.746094 124.625 211.695312 124.605469 C 210.921875 124.265625 210.074219 124.109375 209.222656 124.328125 C 209.148438 124.347656 209.070312 124.304688 209.050781 124.230469 C 209.035156 124.175781 209.058594 124.113281 209.101562 124.082031 C 209.503906 123.785156 210.019531 123.652344 210.519531 123.644531 C 211.023438 123.632812 211.519531 123.75 211.980469 123.9375 C 212.433594 124.136719 212.851562 124.398438 213.214844 124.707031 C 213.375 124.839844 213.53125 124.980469 213.679688 125.125 C 214.265625 125.496094 214.644531 126.101562 214.644531 126.78125 L 214.644531 127.882812 C 215.65625 127.492188 216.785156 127.59375 217.71875 128.164062 L 217.71875 127.492188 C 217.71875 126.949219 217.953125 126.4375 218.378906 126.058594 C 218.871094 125.613281 219.550781 125.398438 220.242188 125.472656 L 225.644531 126.039062 C 225.460938 125.917969 225.277344 125.792969 225.082031 125.691406 C 223.988281 125.109375 222.675781 124.851562 221.464844 125.308594 C 221.394531 125.335938 221.3125 125.300781 221.285156 125.230469 C 221.261719 125.167969 221.285156 125.105469 221.332031 125.066406 C 221.90625 124.644531 222.652344 124.476562 223.367188 124.5 C 224.085938 124.515625 224.785156 124.726562 225.421875 125.050781 C 226.046875 125.382812 226.609375 125.816406 227.09375 126.304688 C 227.582031 126.785156 228.015625 127.304688 228.410156 127.851562 C 228.46875 127.921875 228.453125 128.027344 228.378906 128.078125 C 228.316406 128.125 228.230469 128.121094 228.175781 128.074219 C 228.027344 127.953125 227.886719 127.828125 227.746094 127.703125 C 227.765625 127.824219 227.78125 127.945312 227.78125 128.070312 L 227.78125 129.445312 L 230.648438 128.675781 C 229.78125 126.175781 229.121094 124.605469 229.121094 124.605469 L 226.996094 119.203125 L 226.996094 124.605469 C 226.996094 124.605469 226.996094 124.605469 221.589844 121.90625 C 216.1875 119.203125 214.253906 113.410156 214.253906 113.410156 L 214.253906 121.90625 C 211.808594 121.253906 209.898438 119.839844 208.5 118.429688 C 208.304688 119.933594 207.945312 121.957031 207.878906 124.265625 Z M 227.058594 128.070312 C 227.058594 127.410156 226.476562 126.855469 225.707031 126.773438 L 220.164062 126.191406 C 219.675781 126.144531 219.203125 126.289062 218.863281 126.59375 C 218.59375 126.835938 218.445312 127.15625 218.445312 127.492188 L 218.445312 131.167969 C 218.445312 131.828125 219.023438 132.386719 219.792969 132.46875 L 225.335938 133.046875 C 225.824219 133.097656 226.296875 132.953125 226.636719 132.644531 C 226.910156 132.398438 227.058594 132.082031 227.058594 131.746094 Z M 213.496094 131.355469 C 213.769531 131.109375 213.917969 130.792969 213.917969 130.457031 L 213.917969 126.78125 C 213.917969 126.121094 213.339844 125.5625 212.566406 125.480469 L 207.871094 124.992188 C 207.875 126.316406 207.972656 127.71875 208.273438 129.175781 C 208.40625 129.820312 208.519531 130.566406 208.621094 131.382812 L 212.195312 131.753906 C 212.683594 131.804688 213.160156 131.660156 213.496094 131.355469 Z M 201.933594 154.894531 C 201.933594 154.894531 201.570312 147.230469 201.933594 129.875 C 202.136719 120.34375 204.453125 112.445312 206.5 107.261719 C 206.984375 105.605469 207.660156 104.113281 208.492188 102.773438 C 209.207031 101.34375 209.6875 100.570312 209.6875 100.570312 L 210.136719 100.570312 C 218.109375 91.464844 235.027344 91.574219 247.265625 98.351562 C 268.890625 110.324219 258.851562 147.578125 258.851562 147.578125 C 251.320312 153.175781 234.140625 156.460938 234.140625 156.460938 C 234.140625 156.460938 234.863281 153.742188 234.71875 148.703125 C 234.332031 149.074219 233.929688 149.421875 233.503906 149.746094 C 232.539062 150.46875 231.472656 151.046875 230.386719 151.542969 C 229.28125 152.011719 228.152344 152.40625 227.007812 152.71875 C 225.859375 153.03125 224.703125 153.285156 223.539062 153.5 C 223.464844 153.515625 223.390625 153.464844 223.378906 153.390625 C 223.363281 153.320312 223.40625 153.253906 223.472656 153.234375 L 226.828125 152.132812 C 227.9375 151.757812 229.039062 151.371094 230.089844 150.882812 C 231.15625 150.425781 232.175781 149.867188 233.132812 149.222656 C 233.679688 148.855469 234.195312 148.445312 234.691406 148.007812 C 234.617188 146.351562 234.453125 144.472656 234.140625 142.367188 C 233.414062 137.492188 232.015625 132.726562 230.882812 129.359375 L 227.78125 130.195312 L 227.78125 131.746094 C 227.78125 132.289062 227.546875 132.800781 227.121094 133.183594 C 226.691406 133.566406 226.125 133.78125 225.523438 133.78125 C 225.4375 133.78125 225.347656 133.777344 225.257812 133.765625 L 219.71875 133.1875 C 218.578125 133.066406 217.71875 132.199219 217.71875 131.167969 L 217.71875 129.039062 L 217.605469 128.953125 C 216.742188 128.285156 215.601562 128.191406 214.644531 128.679688 L 214.644531 130.457031 C 214.644531 130.617188 214.613281 130.773438 214.574219 130.925781 C 214.816406 130.652344 215.058594 130.382812 215.320312 130.125 C 215.390625 130.0625 215.492188 130.066406 215.554688 130.132812 C 215.609375 130.191406 215.617188 130.28125 215.570312 130.339844 L 215.566406 130.347656 C 214.984375 131.136719 214.410156 131.941406 213.925781 132.777344 C 213.457031 133.601562 212.972656 134.511719 212.992188 135.347656 C 212.996094 135.546875 213.039062 135.730469 213.128906 135.878906 C 213.171875 135.953125 213.234375 136.019531 213.296875 136.085938 L 213.5625 136.292969 C 213.933594 136.554688 214.355469 136.738281 214.796875 136.886719 C 215.691406 137.15625 216.683594 137.207031 217.640625 137.117188 L 217.652344 137.117188 C 217.726562 137.109375 217.792969 137.164062 217.800781 137.242188 C 217.808594 137.308594 217.761719 137.367188 217.699219 137.386719 C 216.714844 137.660156 215.667969 137.707031 214.640625 137.472656 C 214.125 137.363281 213.628906 137.144531 213.179688 136.851562 L 212.851562 136.609375 C 212.734375 136.503906 212.625 136.390625 212.535156 136.253906 C 212.359375 135.984375 212.285156 135.667969 212.269531 135.375 C 212.253906 134.78125 212.4375 134.265625 212.636719 133.789062 C 212.851562 133.3125 213.089844 132.859375 213.382812 132.441406 C 213.445312 132.347656 213.515625 132.265625 213.582031 132.175781 C 213.222656 132.378906 212.8125 132.492188 212.386719 132.492188 C 212.296875 132.492188 212.207031 132.484375 212.121094 132.476562 L 208.710938 132.117188 C 209.113281 135.609375 209.398438 140.023438 210.203125 142.65625 C 211.632812 147.355469 214.246094 150.441406 216.515625 152.046875 C 206.566406 153 201.933594 154.894531 201.933594 154.894531 Z M 306.71875 289.527344 L 309.789062 281.070312 L 306.191406 281.070312 Z M 268.980469 281.070312 L 272.3125 334.511719 C 282.238281 328.394531 291.074219 320.492188 298.84375 311.210938 L 300.507812 306.632812 L 298.863281 281.070312 Z M 272.3125 334.519531 L 272.3125 334.511719 C 272.179688 334.59375 272.050781 334.675781 271.917969 334.753906 C 272.046875 334.675781 272.183594 334.601562 272.3125 334.519531 Z M 230.335938 281.070312 C 220.558594 300.683594 215.234375 334.457031 213.738281 345.117188 C 209.597656 345.945312 205.898438 346.550781 203.113281 346.964844 C 206.523438 347.484375 209.933594 347.867188 213.332031 348.117188 C 213.332031 348.117188 213.332031 348.117188 213.332031 348.121094 C 213.445312 348.128906 213.5625 348.136719 213.679688 348.140625 C 215.78125 348.292969 217.886719 348.394531 219.980469 348.433594 C 220.730469 348.445312 221.476562 348.457031 222.222656 348.457031 C 238.296875 348.457031 252.644531 344.851562 265.34375 338.429688 L 261.652344 281.070312 Z M 302.914062 265.804688 C 287.191406 265.6875 260.304688 265.65625 245.238281 266.605469 C 241.792969 266.820312 238.648438 268.953125 235.792969 272.382812 L 311.324219 272.382812 C 310.378906 268.722656 307.09375 265.835938 302.914062 265.804688 Z M 175.328125 286.597656 L 178.324219 281.070312 L 113.882812 281.070312 C 110.800781 285.996094 107.996094 291.59375 105.550781 297.117188 C 109.480469 300.71875 113.535156 304.175781 117.695312 307.476562 L 122.300781 305.554688 L 121.859375 305.515625 C 121.859375 305.515625 149.792969 294.703125 175.328125 286.597656 Z M 154.152344 264.828125 C 154.078125 264.667969 154.007812 264.503906 153.933594 264.347656 C 153.324219 263.03125 152.734375 261.703125 152.105469 260.398438 L 150.234375 256.464844 C 150.179688 256.355469 150.074219 256.285156 149.949219 256.285156 L 119.519531 256.464844 C 119.445312 256.464844 119.382812 256.523438 119.382812 256.597656 C 119.382812 256.675781 119.441406 256.738281 119.519531 256.738281 L 149.746094 256.914062 L 151.464844 260.695312 C 152.058594 262.019531 152.695312 263.324219 153.308594 264.636719 C 153.921875 265.953125 154.554688 267.261719 155.195312 268.5625 C 155.820312 269.871094 156.492188 271.15625 157.144531 272.453125 C 157.183594 272.53125 157.277344 272.566406 157.355469 272.53125 C 157.417969 272.503906 157.441406 272.445312 157.445312 272.382812 L 183.035156 272.382812 L 186.917969 265.222656 C 186.132812 264.953125 185.320312 264.792969 184.492188 264.785156 C 176.355469 264.710938 164.972656 264.667969 154.152344 264.828125 Z M 189.722656 174.664062 L 192.460938 172.542969 C 191.402344 172.957031 190.464844 173.699219 189.722656 174.664062 Z M 291.457031 177.25 C 291.457031 172.65625 288.136719 169.046875 284.0625 169.183594 L 258.914062 170.019531 C 261.832031 172.554688 264.207031 175.695312 265.832031 179.242188 L 291.457031 213.953125 Z M 284.0625 248.226562 L 258.792969 247.386719 C 259.273438 238.492188 260.292969 229.632812 261.851562 220.847656 C 262.75 221.710938 263.695312 222.539062 264.695312 223.320312 L 278.558594 240.066406 C 281.496094 243.617188 285.964844 245.214844 290.257812 244.644531 C 288.9375 246.875 286.65625 248.308594 284.0625 248.226562 "/>
</g>
</g>
</svg>
